<svg width="25.000000" height="30.000000" viewBox="0 0 25 30" fill="none" xmlns="http://www.w3.org/2000/svg" xmlns:xlink="http://www.w3.org/1999/xlink">
	<desc>
			Created with Pixso.
	</desc>
	<defs/>
	<path d="M13.79 2.61C15.8 0.01 18.6 0 18.6 0C18.6 0 19.02 2.44 17.02 4.79C14.88 7.3 12.45 6.89 12.45 6.89C12.45 6.89 12 4.92 13.79 2.61ZM12.71 8.6C13.75 8.6 15.67 7.21 18.17 7.21C22.48 7.21 24.18 10.21 24.18 10.21C24.18 10.21 20.86 11.87 20.86 15.89C20.86 20.43 25 22 25 22C25 22 22.11 29.95 18.21 29.95C16.41 29.95 15.02 28.77 13.13 28.77C11.21 28.77 9.3 30 8.06 30C4.5 30 0 22.45 0 16.39C0 10.42 3.8 7.29 7.38 7.29C9.7 7.29 11.5 8.6 12.71 8.6Z" fill="#000000" fill-opacity="1.000000" fill-rule="nonzero"/>
</svg>
